<svg width="125" height="27" viewBox="0 0 125 27" fill="none" xmlns="http://www.w3.org/2000/svg">
<path d="M25.7152 16.6483C23.9713 23.5942 16.9119 27.8399 9.88737 26.1024C2.91037 24.3663 -1.35436 17.3383 0.390935 10.3452C2.13484 3.39928 9.19429 -0.84643 16.2188 0.891084C23.1958 2.62721 27.4605 9.65516 25.7152 16.6483Z" fill="url(#paint0_linear_1_151)"/>
<path d="M18.8031 11.6331C19.0616 9.89695 17.7369 8.96211 15.9287 8.3528L16.51 6.00458L15.0889 5.65123L14.5076 7.93268L13.345 7.67532L13.9263 5.39387L12.5052 5.04053L11.9239 7.38875L11.0198 7.16339L9.06349 6.68067L8.67642 8.19143L9.71047 8.44878C9.91111 8.47155 10.0947 8.57203 10.2215 8.72848C10.3483 8.88494 10.4082 9.0848 10.3882 9.28485L9.71047 11.9558C9.74261 11.9558 9.80828 11.9878 9.87256 11.9878C9.84042 11.9878 9.77475 11.9558 9.71047 11.9558L8.77424 15.6868C8.70996 15.8482 8.51573 16.1375 8.12866 16.0402C8.12866 16.0721 7.09461 15.7828 7.09461 15.7828L6.39594 17.4243L8.26839 17.875L9.30244 18.1324L8.72114 20.4973L10.1423 20.8507L10.7236 18.5024L11.8414 18.7918L11.2601 21.14L12.6813 21.4934L13.2626 19.1285C15.7177 19.5792 17.5245 19.4178 18.3014 17.199C18.9163 15.4322 18.2693 14.4167 16.9767 13.7253C17.9465 13.5306 18.6256 12.9213 18.8185 11.6345L18.8031 11.6331ZM15.5402 16.2321C15.0875 17.9989 12.1167 17.0362 11.147 16.8108L11.9225 13.6599C12.8923 13.8853 15.993 14.3555 15.5556 16.2335L15.5402 16.2321ZM15.993 11.6331C15.6059 13.2412 13.0865 12.4371 12.2788 12.2118L12.9775 9.35023C13.7852 9.57559 16.401 9.92894 15.9818 11.6317L15.993 11.6331Z" fill="white"/>
<path d="M38.2488 8.35008C39.315 8.35008 40.2051 8.54484 40.9946 8.89679C41.7701 9.28213 42.4157 9.76485 42.9006 10.4075C43.4176 11.0502 43.7725 11.7903 44.0185 12.6584C44.2557 13.5612 44.375 14.4907 44.3734 15.4239C44.379 16.8909 44.0936 18.3446 43.5336 19.7016C43.0052 21.0073 42.2263 22.198 41.2405 23.2072C40.2612 24.2055 39.0991 25.0082 37.817 25.5721C36.4617 26.1582 34.9977 26.454 33.5201 26.4402H32.4861C32.0012 26.4402 31.4199 26.3762 30.7743 26.2788L28.7398 25.8935C28.0411 25.7321 27.3508 25.4761 26.7052 25.1979L32.4232 1.30407L37.5263 0.5L35.4918 8.99C35.9445 8.79524 36.3637 8.63665 36.8165 8.53927C37.2785 8.40748 37.757 8.3419 38.2376 8.34452L38.2488 8.35008ZM33.9533 22.4365C34.7288 22.4365 35.4387 22.2418 36.1192 21.8898C36.8036 21.505 37.4067 20.992 37.8952 20.3791C38.3801 19.767 38.7672 19.0603 39.0578 18.2562C39.3485 17.4522 39.477 16.6481 39.477 15.78C39.477 14.7186 39.315 13.9159 38.96 13.3039C38.6051 12.7251 37.9581 12.4038 37.0219 12.4038C36.7005 12.4038 36.3232 12.4678 35.8272 12.5652C35.3311 12.6625 34.8909 12.9185 34.5025 13.2607L32.3366 22.2654C32.4651 22.2974 32.5951 22.2974 32.6915 22.3294C32.7879 22.3614 32.8871 22.3614 33.0129 22.3934C33.1107 22.3934 33.2714 22.4254 33.3999 22.4254H33.9491L33.9533 22.4365ZM49.7155 26.0535H44.8247L48.9469 8.73959H53.8573L49.7155 26.0535ZM52.0742 6.63066C51.4085 6.63949 50.7594 6.42375 50.2325 6.01857C49.6834 5.60123 49.3941 4.98914 49.3941 4.15447C49.3941 3.70375 49.4919 3.25441 49.6847 2.86768C49.8645 2.47118 50.1166 2.11129 50.4281 1.80626C50.7496 1.52275 51.1083 1.28407 51.4943 1.09679C51.9135 0.935421 52.3327 0.839432 52.7869 0.839432C53.4526 0.830603 54.1017 1.04634 54.6286 1.45152C55.1778 1.86886 55.467 2.48095 55.467 3.31562C55.467 3.76635 55.3692 4.21568 55.1764 4.60241C54.9966 4.99891 54.7445 5.3588 54.433 5.66383C54.1423 5.95318 53.7553 6.17854 53.3668 6.35939C52.9783 6.54024 52.5591 6.61675 52.0742 6.61675V6.63066ZM58.1471 4.44104L63.2838 3.63697L62.0234 8.75072H67.515L66.5131 12.785H61.0537L59.6004 18.8308C59.4824 19.2946 59.4067 19.7681 59.374 20.2455C59.3433 20.6949 59.4062 21.0496 59.5361 21.3584C59.5992 21.5227 59.6947 21.6728 59.8168 21.7998C59.9389 21.9269 60.0853 22.0285 60.2474 22.0985C60.6023 22.2599 61.0858 22.3559 61.7006 22.3559C62.2177 22.3559 62.7347 22.2919 63.2377 22.1945C63.7445 22.0999 64.2417 21.9597 64.7231 21.7758L65.078 25.5387C64.3802 25.7847 63.6681 25.9886 62.9457 26.1494C62.1701 26.3442 61.2661 26.4068 60.1999 26.4068C58.6823 26.4068 57.5169 26.1814 56.6785 25.7321C55.8401 25.2828 55.2574 24.6707 54.9039 23.8986C54.5504 23.1265 54.3869 22.2265 54.4511 21.2277C54.4833 20.2302 54.6468 19.1688 54.9039 18.0281L58.1471 4.44104ZM67.2887 19.1382C67.291 17.7047 67.5313 16.2814 67.9999 14.9259C68.4615 13.6581 69.1631 12.4903 70.0666 11.4857C70.9707 10.4882 72.069 9.71894 73.3616 9.13745C74.6541 8.55596 76.0752 8.2694 77.6585 8.2694C78.6604 8.2694 79.5309 8.36678 80.3078 8.55875C81.0848 8.75072 81.7932 8.97608 82.4402 9.29882L80.7606 13.1244C80.3078 12.9296 79.8565 12.8044 79.4052 12.6417C78.9203 12.4803 78.339 12.4163 77.6613 12.4163C76.0124 12.4163 74.7547 12.963 73.785 14.0884C72.8152 15.2139 72.3317 16.6926 72.3317 18.5901C72.3317 19.703 72.5902 20.6156 73.0751 21.2917C73.56 21.9872 74.4641 22.3211 75.758 22.3211C76.3772 22.3238 76.9948 22.259 77.5998 22.1277C78.1407 22.0133 78.6705 21.8517 79.183 21.645L79.5379 25.5679L77.5033 26.2106C76.76 26.4054 75.8545 26.5 74.8204 26.5C73.465 26.5 72.301 26.3052 71.3648 25.9213C70.4728 25.5579 69.6687 25.0098 69.006 24.3132C68.3864 23.6441 67.9327 22.8399 67.6813 21.965C67.4196 21.0445 67.2893 20.092 67.2943 19.1354L67.2887 19.1382ZM88.9952 26.4903C87.8326 26.4903 86.7986 26.2955 85.9588 25.9755C85.0868 25.6222 84.3756 25.1409 83.8264 24.4968C83.2637 23.8349 82.8357 23.0705 82.566 22.246C82.2753 21.3779 82.1468 20.4125 82.1468 19.3844C82.1468 18.0656 82.3731 16.7469 82.7924 15.4295C83.1984 14.1414 83.845 12.9411 84.6983 11.8919C85.5368 10.8304 86.5708 9.96239 87.7669 9.3183C88.9617 8.64361 90.3521 8.32087 91.9339 8.32087C92.9684 8.3149 93.996 8.48909 94.9703 8.83558C95.8423 9.18892 96.5535 9.67025 97.1027 10.3143C97.6654 10.9762 98.0934 11.7407 98.3631 12.5652C98.6538 13.4332 98.7823 14.3987 98.7823 15.4267C98.7823 16.7455 98.5867 18.0643 98.1675 19.3816C97.7483 20.699 97.1334 21.8898 96.3258 22.9193C95.5181 23.9807 94.484 24.8167 93.2572 25.4928C92.0303 26.1689 90.6078 26.4903 88.9952 26.4903ZM91.4504 12.4052C90.7665 12.4053 90.0999 12.6189 89.5444 13.0159C88.9952 13.4332 88.5425 13.9479 88.1554 14.592C87.7683 15.2361 87.5098 15.9108 87.317 16.6829C87.1242 17.455 87.0263 18.1616 87.0263 18.8391C87.0263 19.9325 87.222 20.7867 87.5434 21.4127C87.8983 22.0248 88.5453 22.3447 89.4494 22.3447C90.1928 22.3447 90.8048 22.15 91.3554 21.7326C91.9059 21.3153 92.3573 20.8006 92.7443 20.1565C93.1314 19.5124 93.3899 18.8377 93.5827 18.0657C93.7712 17.3621 93.8689 16.6375 93.8734 15.9094C93.8734 14.816 93.7113 13.9619 93.3564 13.3358C93.0014 12.7098 92.3545 12.4038 91.4504 12.4038V12.4052ZM104.115 26.0381H99.2239L103.36 8.73681H108.27L104.115 26.0381ZM106.473 6.61536C105.808 6.62418 105.159 6.40845 104.632 6.00327C104.082 5.58593 103.793 4.97384 103.793 4.13917C103.793 3.68844 103.891 3.23911 104.084 2.85238C104.264 2.45588 104.516 2.09599 104.827 1.79096C105.149 1.50745 105.507 1.26877 105.893 1.08149C106.313 0.920119 106.732 0.82413 107.186 0.82413C107.852 0.815301 108.501 1.03104 109.028 1.43622C109.577 1.85356 109.866 2.46565 109.866 3.30032C109.866 3.75104 109.768 4.20037 109.576 4.5871C109.396 4.98361 109.144 5.3435 108.832 5.64853C108.511 5.93204 108.152 6.17072 107.766 6.358C107.377 6.55276 106.958 6.61536 106.473 6.61536ZM111.8 9.50888L113.027 9.12354L114.545 8.7382C115.162 8.60061 115.788 8.50395 116.418 8.44885L118.777 8.32087C121.362 8.32087 123.137 9.06094 124.107 10.5717C125.076 12.0505 125.269 14.1093 124.624 16.6815L122.363 26.0075H117.452L119.618 16.8749L119.94 15.2027C120.004 14.656 120.004 14.2053 119.908 13.788C119.828 13.3934 119.61 13.0399 119.293 12.7905C118.969 12.5332 118.485 12.4052 117.807 12.4052C117.162 12.4052 116.515 12.4692 115.869 12.5999L112.655 25.9783H107.745L111.8 9.50888Z" fill="url(#paint1_linear_1_151)"/>
<defs>
<linearGradient id="paint0_linear_1_151" x1="6.10352e-05" y1="13.4968" x2="26.1061" y2="13.4968" gradientUnits="userSpaceOnUse">
<stop stop-color="#6D4CFF"/>
<stop offset="1" stop-color="#00C6FF"/>
</linearGradient>
<linearGradient id="paint1_linear_1_151" x1="26.7052" y1="13.5" x2="125" y2="13.5" gradientUnits="userSpaceOnUse">
<stop stop-color="#6D4CFF"/>
<stop offset="1" stop-color="#00C6FF"/>
</linearGradient>
</defs>
</svg>
