<svg width="152" height="31" viewBox="0 0 152 31" fill="none" xmlns="http://www.w3.org/2000/svg">
<g clip-path="url(#clip0_1_149)">
<path d="M9.29711 13.1056L15.2014 7.28146L21.1082 13.1104L24.5418 9.71965L15.2014 0.5L5.86111 9.71728L9.29711 13.1056Z" fill="url(#paint0_linear_1_149)"/>
<path d="M-0.00119781 15.5005L3.43354 12.111L6.86827 15.5005L3.43354 18.89L-0.00119781 15.5005Z" fill="url(#paint1_linear_1_149)"/>
<path d="M9.2971 17.8945L15.2014 23.721L21.1082 17.8921L24.5442 21.2781L24.5418 21.2804L15.2014 30.5001L5.86111 21.2852L5.85631 21.2804L9.2971 17.8945Z" fill="url(#paint2_linear_1_149)"/>
<path d="M23.5288 15.5015L26.9636 12.112L30.3983 15.5015L26.9636 18.891L23.5288 15.5015Z" fill="url(#paint3_linear_1_149)"/>
<path d="M18.6854 15.4986L15.2014 12.0581L12.625 14.6006L12.3272 14.892L11.7173 15.4939L11.7125 15.4986L11.7173 15.5057L15.2014 18.9415L18.6854 15.501L18.6878 15.4986H18.6854Z" fill="url(#paint4_linear_1_149)"/>
<path d="M35.7574 7.76953H43.2296C45.0833 7.76953 46.4855 8.24343 47.4364 9.19122C47.7946 9.54133 48.077 9.95961 48.2665 10.4207C48.4559 10.8818 48.5485 11.376 48.5385 11.8735V11.9185C48.5449 12.326 48.4874 12.732 48.368 13.1222C48.2616 13.4581 48.1072 13.7772 47.9094 14.07C47.725 14.3461 47.5019 14.595 47.2467 14.8093C46.9974 15.021 46.7242 15.2039 46.4327 15.3542C47.2735 15.6432 48.0295 16.1314 48.6345 16.7759C49.1692 17.3762 49.4365 18.2055 49.4365 19.2639V19.3089C49.4517 19.9699 49.3059 20.6248 49.0115 21.2187C48.7262 21.7659 48.3079 22.2348 47.7941 22.5835C47.2132 22.9678 46.5665 23.2448 45.8852 23.401C45.0759 23.5904 44.2462 23.6819 43.4145 23.6735H35.7574V7.76953ZM42.4805 14.2003C43.127 14.2311 43.7703 14.0939 44.3461 13.8022C44.5707 13.6728 44.754 13.4839 44.8754 13.2569C44.9968 13.0299 45.0513 12.774 45.0329 12.518V12.473C45.0447 12.2371 44.9962 12.0021 44.8917 11.7896C44.7872 11.5771 44.6301 11.3941 44.435 11.2574C44.0364 10.9778 43.4609 10.838 42.7086 10.838H39.2126V14.2003H42.4805ZM43.4241 20.6098C44.0682 20.6454 44.7093 20.4999 45.273 20.1904C45.4925 20.0511 45.6703 19.8564 45.7877 19.6263C45.9051 19.3963 45.9579 19.1394 45.9405 18.8824V18.8374C45.9491 18.5931 45.897 18.3505 45.7885 18.1307C45.6801 17.9109 45.5188 17.7208 45.3186 17.5768C44.9056 17.2609 44.2381 17.1029 43.3161 17.1029H39.2126V20.6098H43.4241Z" fill="url(#paint5_linear_1_149)"/>
<path d="M53.8881 7.76953H57.4346V23.6782H53.8881V7.76953Z" fill="url(#paint6_linear_1_149)"/>
<path d="M62.8011 7.76953H66.0714L73.6301 17.5602V7.76953H77.1309V23.6782H74.1127L66.3067 13.5653V23.6782H62.8011V7.76953Z" fill="url(#paint7_linear_1_149)"/>
<path d="M87.8687 7.65576H91.1342L98.0422 23.6782H94.3397L92.8654 20.1098H86.0487L84.5744 23.6782H80.9583L87.8687 7.65576ZM91.6 17.02L89.4535 11.8592L87.3165 17.02H91.6Z" fill="url(#paint8_linear_1_149)"/>
<path d="M101.877 7.76953H105.147L112.701 17.5602V7.76953H116.202V23.6782H113.184L105.378 13.5653V23.6782H101.877V7.76953Z" fill="url(#paint9_linear_1_149)"/>
<path d="M128.966 23.9578C127.836 23.9673 126.715 23.7513 125.672 23.3227C124.689 22.9224 123.798 22.3321 123.051 21.5866C122.303 20.8411 121.714 19.9555 121.319 18.9819C120.901 17.9635 120.69 16.8744 120.697 15.7759V15.7309C120.678 13.5658 121.522 11.4801 123.047 9.92333C123.798 9.16291 124.696 8.56004 125.689 8.15096C126.768 7.70967 127.927 7.48959 129.096 7.50409C129.787 7.499 130.477 7.5601 131.156 7.68654C131.737 7.79498 132.305 7.96253 132.851 8.1865C133.347 8.39232 133.818 8.65137 134.256 8.95895C134.683 9.25894 135.085 9.59339 135.456 9.95887L133.202 12.5274C132.626 12.0029 131.979 11.5588 131.281 11.2076C130.595 10.8838 129.842 10.7216 129.081 10.7337C128.449 10.727 127.822 10.8533 127.242 11.1041C126.662 11.355 126.144 11.7246 125.72 12.1886C125.3 12.6513 124.971 13.1873 124.75 13.769C124.518 14.3838 124.402 15.0349 124.406 15.6906V15.7357C124.404 16.3905 124.52 17.0405 124.75 17.6549C124.968 18.2388 125.294 18.7778 125.71 19.2449C126.131 19.7145 126.648 20.0896 127.228 20.3447C127.808 20.5998 128.437 20.729 129.072 20.7234C129.88 20.7486 130.683 20.5769 131.408 20.2235C132.099 19.8521 132.737 19.3932 133.307 18.8586L135.564 21.1097C135.166 21.5365 134.735 21.9326 134.275 22.2944C133.823 22.6469 133.333 22.9481 132.813 23.1924C132.259 23.4498 131.675 23.64 131.074 23.7587C130.38 23.896 129.674 23.9627 128.966 23.9578Z" fill="url(#paint10_linear_1_149)"/>
<path d="M139.75 7.76953H151.882V10.883H143.238V14.1103H150.85V17.2238H143.25V20.5647H152.002V23.6782H139.757L139.75 7.76953Z" fill="url(#paint11_linear_1_149)"/>
</g>
<defs>
<linearGradient id="paint0_linear_1_149" x1="5.86111" y1="6.80519" x2="24.5418" y2="6.80519" gradientUnits="userSpaceOnUse">
<stop stop-color="#6D4CFF"/>
<stop offset="1" stop-color="#00C6FF"/>
</linearGradient>
<linearGradient id="paint1_linear_1_149" x1="1.71617" y1="17.1952" x2="5.10536" y2="13.7608" gradientUnits="userSpaceOnUse">
<stop stop-color="#6D4CFF"/>
<stop offset="1" stop-color="#00C6FF"/>
</linearGradient>
<linearGradient id="paint2_linear_1_149" x1="5.85631" y1="24.1961" x2="24.5442" y2="24.1961" gradientUnits="userSpaceOnUse">
<stop stop-color="#6D4CFF"/>
<stop offset="1" stop-color="#00C6FF"/>
</linearGradient>
<linearGradient id="paint3_linear_1_149" x1="25.2462" y1="17.1962" x2="28.6354" y2="13.7618" gradientUnits="userSpaceOnUse">
<stop stop-color="#6D4CFF"/>
<stop offset="1" stop-color="#00C6FF"/>
</linearGradient>
<linearGradient id="paint4_linear_1_149" x1="11.7125" y1="15.4998" x2="18.6878" y2="15.4998" gradientUnits="userSpaceOnUse">
<stop stop-color="#6D4CFF"/>
<stop offset="1" stop-color="#00C6FF"/>
</linearGradient>
<linearGradient id="paint5_linear_1_149" x1="35.7574" y1="15.7218" x2="49.4376" y2="15.7218" gradientUnits="userSpaceOnUse">
<stop stop-color="#6D4CFF"/>
<stop offset="1" stop-color="#00C6FF"/>
</linearGradient>
<linearGradient id="paint6_linear_1_149" x1="53.8881" y1="15.7239" x2="57.4346" y2="15.7239" gradientUnits="userSpaceOnUse">
<stop stop-color="#6D4CFF"/>
<stop offset="1" stop-color="#00C6FF"/>
</linearGradient>
<linearGradient id="paint7_linear_1_149" x1="62.8011" y1="15.7239" x2="77.1309" y2="15.7239" gradientUnits="userSpaceOnUse">
<stop stop-color="#6D4CFF"/>
<stop offset="1" stop-color="#00C6FF"/>
</linearGradient>
<linearGradient id="paint8_linear_1_149" x1="80.9583" y1="15.667" x2="98.0422" y2="15.667" gradientUnits="userSpaceOnUse">
<stop stop-color="#6D4CFF"/>
<stop offset="1" stop-color="#00C6FF"/>
</linearGradient>
<linearGradient id="paint9_linear_1_149" x1="101.877" y1="15.7239" x2="116.202" y2="15.7239" gradientUnits="userSpaceOnUse">
<stop stop-color="#6D4CFF"/>
<stop offset="1" stop-color="#00C6FF"/>
</linearGradient>
<linearGradient id="paint10_linear_1_149" x1="120.696" y1="15.7307" x2="135.564" y2="15.7307" gradientUnits="userSpaceOnUse">
<stop stop-color="#6D4CFF"/>
<stop offset="1" stop-color="#00C6FF"/>
</linearGradient>
<linearGradient id="paint11_linear_1_149" x1="139.75" y1="15.7239" x2="152.002" y2="15.7239" gradientUnits="userSpaceOnUse">
<stop stop-color="#6D4CFF"/>
<stop offset="1" stop-color="#00C6FF"/>
</linearGradient>
<clipPath id="clip0_1_149">
<rect width="152" height="30" fill="white" transform="translate(0 0.5)"/>
</clipPath>
</defs>
</svg>
