<svg width="124" height="33" viewBox="0 0 124 33" fill="none" xmlns="http://www.w3.org/2000/svg">
<path d="M17.2443 33C26.4919 33 33.9886 25.6127 33.9886 16.5C33.9886 7.3873 26.4919 0 17.2443 0C7.99667 0 0.5 7.3873 0.5 16.5C0.5 25.6127 7.99667 33 17.2443 33Z" fill="url(#paint0_linear_1_152)"/>
<path d="M19.0277 18.0227V18.0201C18.912 18.028 18.3144 18.0625 16.9845 18.0625C15.9212 18.0625 15.1755 18.0333 14.9117 18.0201V18.0227C10.8225 17.845 7.77245 17.1447 7.77245 16.3037C7.77245 15.4655 10.8252 14.7625 14.9117 14.5848V17.325C15.1782 17.3436 15.9454 17.3887 17.0033 17.3887C18.274 17.3887 18.9093 17.3356 19.0277 17.325V14.5874C23.1088 14.7678 26.1508 15.4681 26.1508 16.3064C26.1508 17.1447 23.1061 17.845 19.0277 18.0254V18.0227ZM19.0277 14.3036V11.8524H24.7213V8.11475H9.22075V11.8524H14.9143V14.3036C10.2868 14.5131 6.80872 15.4151 6.80872 16.4974C6.80872 17.5797 10.2895 18.4816 14.9143 18.6938V26.5512H19.0304V18.6938C23.6499 18.4843 27.1226 17.5824 27.1226 16.5C27.1226 15.4204 23.6499 14.5158 19.0304 14.3062" fill="#F8F8FC"/>
<path d="M48.2101 9.13584V13.099H52.1188V16.0728H48.1831V22.1025C48.1831 23.4341 48.9288 24.0841 50.0218 24.0841C50.5682 24.0841 51.2009 23.9143 51.7177 23.6596L52.6949 26.6042C51.6908 26.9994 50.8563 27.1692 49.793 27.1984C46.7187 27.3124 44.7078 25.5855 44.7078 22.1025V16.0728H42.0642V13.099H44.7078V9.50457L48.2101 9.13584ZM115.599 12.9133L115.857 14.5262C116.95 12.7993 118.415 12.5446 119.852 12.5446C121.317 12.5446 122.725 13.1096 123.5 13.8736L121.92 16.8739C121.201 16.2797 120.542 15.9667 119.392 15.9667C117.553 15.9667 115.857 16.9296 115.857 19.5054V26.8668H112.352V12.908L115.599 12.9133ZM107.009 18.2639C106.78 16.4521 105.342 15.5449 103.332 15.5449C101.436 15.5449 99.8831 16.4521 99.3662 18.2639H107.009ZM99.3097 21.1236C99.5385 22.8505 101.062 24.0973 103.533 24.0973C104.826 24.0973 106.522 23.6145 107.326 22.7948L109.566 24.9754C108.072 26.5034 105.631 27.2408 103.474 27.2408C98.5909 27.2408 95.6862 24.2671 95.6862 19.7946C95.6862 15.5475 98.6178 12.4889 103.216 12.4889C107.956 12.4889 110.918 15.3777 110.371 21.1236H99.3097ZM83.8522 7.05078V14.8074C85.1174 13.1945 86.668 12.7117 88.2778 12.7117C92.2997 12.7117 94.0818 15.4016 94.0818 19.5081V26.8694H90.5768V19.5372C90.5768 16.988 89.2254 15.9136 87.3572 15.9136C85.287 15.9136 83.8522 17.6405 83.8522 19.7362V26.8721H80.3472V7.05343L83.8522 7.05078ZM74.5432 8.97667V12.9399H78.452V15.9136H74.5163V21.9433C74.5163 23.275 75.2647 23.9249 76.355 23.9249C76.9014 23.9249 77.5341 23.7551 78.0509 23.5004L79.0281 26.445C78.024 26.8403 77.1895 27.01 76.1261 27.0392C73.0519 27.1533 71.0409 25.4237 71.0409 21.9433V15.9136H68.3974V12.9399H71.0409V9.34541L74.5432 8.97667ZM64.8601 18.2639C64.6313 16.4521 63.1938 15.5449 61.1828 15.5449C59.2877 15.5449 57.7344 16.4521 57.2175 18.2639H64.8601ZM57.161 21.1236C57.3898 22.8505 58.9135 24.0973 61.3847 24.0973C62.6769 24.0973 64.3728 23.6145 65.1778 22.7948L67.4175 24.9754C65.9234 26.5034 63.4818 27.2408 61.3255 27.2408C56.4395 27.2408 53.5375 24.2671 53.5375 19.7946C53.5375 15.5475 56.4691 12.4889 61.0644 12.4889C65.805 12.4889 68.7635 15.3777 68.2197 21.1236H57.161Z" fill="url(#paint1_linear_1_152)"/>
<defs>
<linearGradient id="paint0_linear_1_152" x1="0.5" y1="16.5" x2="33.9886" y2="16.5" gradientUnits="userSpaceOnUse">
<stop stop-color="#6D4CFF"/>
<stop offset="1" stop-color="#00C6FF"/>
</linearGradient>
<linearGradient id="paint1_linear_1_152" x1="42.0642" y1="17.1458" x2="123.5" y2="17.1458" gradientUnits="userSpaceOnUse">
<stop stop-color="#6D4CFF"/>
<stop offset="1" stop-color="#00C6FF"/>
</linearGradient>
</defs>
</svg>
