<svg width="130" height="21" viewBox="0 0 130 21" fill="none" xmlns="http://www.w3.org/2000/svg">
<g clip-path="url(#clip0_1_153)">
<path d="M11.0751 0.393555H23.2461C23.2387 0.553333 23.1831 0.707214 23.0864 0.835208C22.6744 1.53654 22.3036 2.26649 21.8988 2.96782C21.3261 3.97483 20.7904 5.00024 20.2085 6.00316C19.8397 6.72494 19.4236 7.42422 19.0301 8.13373C16.6651 8.13373 14.3001 8.13373 11.9351 8.13373C11.8115 8.13373 11.689 8.13987 11.5654 8.14702C11.4623 8.41692 11.2914 8.65308 11.1533 8.90663C10.9731 9.19697 10.8268 9.50674 10.6486 9.79709C10.4601 10.1876 10.1995 10.5373 10.01 10.9268C9.61857 11.5862 9.2529 12.2558 8.86972 12.9224C8.47007 13.604 8.07934 14.2951 7.69753 14.9957C7.53595 15.244 7.38709 15.5003 7.25152 15.7635C6.45118 17.1457 5.67658 18.5402 4.87521 19.9214C4.80723 20.0698 4.7177 20.2076 4.60946 20.3303C3.23949 20.3211 1.86953 20.3303 0.499572 20.3303C0.33084 20.3335 0.163109 20.3568 0 20.3998C0 20.0236 0.253391 19.722 0.424379 19.4061C0.630388 18.9818 0.90541 18.5882 1.11245 18.1629C2.75434 15.2472 4.37873 12.3213 6.01547 9.40349C6.38628 8.76963 6.70457 8.12249 7.07744 7.5009C7.54303 6.68302 7.97668 5.84675 8.46183 5.03807C8.61633 4.69967 8.8244 4.3899 8.99436 4.05969C9.59797 2.99338 10.1902 1.92094 10.7918 0.854632C10.8632 0.688106 10.9586 0.532783 11.0751 0.393555Z" fill="url(#paint0_linear_1_153)"/>
<path d="M25.1784 4.68634C25.989 3.28061 26.7719 1.85955 27.5938 0.459961H31.9901C32.0541 0.463176 32.1177 0.473114 32.1796 0.489609C32.0333 0.709413 31.9108 0.942508 31.782 1.17151C30.7217 3.06013 29.6646 4.94976 28.6105 6.84042C28.1676 7.61025 27.7556 8.39745 27.3065 9.16319L27.2622 9.17852L27.2539 9.27463C25.187 12.9551 23.1269 16.6382 21.0736 20.3241C17.0379 20.3282 13.0019 20.3282 8.96545 20.3241C9.19515 19.8477 9.46709 19.3928 9.72254 18.9297C10.8721 16.8318 12.0515 14.7524 13.1845 12.6545C15.6642 12.6504 18.1439 12.6504 20.6235 12.6545C22.1552 10.0066 23.6539 7.3383 25.1743 4.68634H25.1784Z" fill="url(#paint1_linear_1_153)"/>
<path d="M70.5487 0.405762V20.5664H74.0684V6.38955L80.4886 15.7266L86.8574 6.1677V20.5664H90.4801V0.405762H86.5834L80.5144 9.71217L74.3774 0.405762H70.5487Z" fill="url(#paint2_linear_1_153)"/>
<path d="M54.0856 5.60547H56.3857V20.7362H54.0856V5.60547Z" fill="url(#paint3_linear_1_153)"/>
<path d="M53.8878 0H56.5835V2.53848H53.8878V0Z" fill="url(#paint4_linear_1_153)"/>
<path d="M60.7809 1.26953H63.184V5.6053H67.9222V7.71849H63.184V16.707C63.1798 17.0533 63.2608 17.3954 63.4198 17.7037C63.8267 18.4705 64.9319 19.3804 67.9222 18.3171V20.276C67.9222 20.276 65.1925 21.8095 62.7204 20.413C62.7204 20.413 61.4926 19.8956 60.9766 18.1495C60.8425 17.6817 60.7766 17.1973 60.7809 16.711V7.68475L58.7548 7.71849V5.6053H60.7973L60.7809 1.26953Z" fill="url(#paint5_linear_1_153)"/>
<path d="M94.1884 0.405762V20.7024H109.467V17.4309H97.914V12.0462H108.094V8.8258H97.8965V3.69771H109.348V0.405762H94.1884Z" fill="url(#paint6_linear_1_153)"/>
<path d="M110.901 0.405762H115.253L120.249 7.53151L125.205 0.405762H129.557L122.45 10.3041L130 20.685H125.416L120.266 13.1033L114.867 20.7024H110.515L117.957 10.3941L110.901 0.405762Z" fill="url(#paint7_linear_1_153)"/>
<path d="M47.0463 10.1725C47.0463 10.1725 50.4114 8.91197 50.2054 5.28264C50.2054 5.28264 50.1776 1.79235 46.2181 0.714801C45.5598 0.539725 44.8808 0.453076 44.1992 0.45717H34.7032L34.729 20.6178H44.9522C44.9522 20.6178 50.9347 20.49 51.356 15.1994C51.356 15.1994 51.7845 11.5016 47.0463 10.1725ZM37.1578 2.53867H43.2186C47.9733 2.52231 47.8363 5.84493 47.8363 5.84493C47.9074 9.63579 43.5441 9.55911 43.5441 9.55911H37.1578V2.53867ZM44.5742 18.4873H37.1578V11.4678H44.2487C49.0034 11.4505 48.8664 14.7731 48.8664 14.7731C48.9374 18.5639 44.5742 18.4873 44.5742 18.4873Z" fill="url(#paint8_linear_1_153)"/>
</g>
<defs>
<linearGradient id="paint0_linear_1_153" x1="0" y1="10.3967" x2="23.2461" y2="10.3967" gradientUnits="userSpaceOnUse">
<stop stop-color="#6D4CFF"/>
<stop offset="1" stop-color="#00C6FF"/>
</linearGradient>
<linearGradient id="paint1_linear_1_153" x1="8.96545" y1="10.3936" x2="32.1796" y2="10.3936" gradientUnits="userSpaceOnUse">
<stop stop-color="#6D4CFF"/>
<stop offset="1" stop-color="#00C6FF"/>
</linearGradient>
<linearGradient id="paint2_linear_1_153" x1="70.5487" y1="10.4861" x2="90.4801" y2="10.4861" gradientUnits="userSpaceOnUse">
<stop stop-color="#6D4CFF"/>
<stop offset="1" stop-color="#00C6FF"/>
</linearGradient>
<linearGradient id="paint3_linear_1_153" x1="54.0856" y1="13.1708" x2="56.3857" y2="13.1708" gradientUnits="userSpaceOnUse">
<stop stop-color="#6D4CFF"/>
<stop offset="1" stop-color="#00C6FF"/>
</linearGradient>
<linearGradient id="paint4_linear_1_153" x1="53.8878" y1="1.26924" x2="56.5835" y2="1.26924" gradientUnits="userSpaceOnUse">
<stop stop-color="#6D4CFF"/>
<stop offset="1" stop-color="#00C6FF"/>
</linearGradient>
<linearGradient id="paint5_linear_1_153" x1="58.7548" y1="11.1348" x2="67.9222" y2="11.1348" gradientUnits="userSpaceOnUse">
<stop stop-color="#6D4CFF"/>
<stop offset="1" stop-color="#00C6FF"/>
</linearGradient>
<linearGradient id="paint6_linear_1_153" x1="94.1884" y1="10.5541" x2="109.467" y2="10.5541" gradientUnits="userSpaceOnUse">
<stop stop-color="#6D4CFF"/>
<stop offset="1" stop-color="#00C6FF"/>
</linearGradient>
<linearGradient id="paint7_linear_1_153" x1="110.515" y1="10.5541" x2="130" y2="10.5541" gradientUnits="userSpaceOnUse">
<stop stop-color="#6D4CFF"/>
<stop offset="1" stop-color="#00C6FF"/>
</linearGradient>
<linearGradient id="paint8_linear_1_153" x1="34.7032" y1="10.5374" x2="51.366" y2="10.5374" gradientUnits="userSpaceOnUse">
<stop stop-color="#6D4CFF"/>
<stop offset="1" stop-color="#00C6FF"/>
</linearGradient>
<clipPath id="clip0_1_153">
<rect width="130" height="21" fill="white"/>
</clipPath>
</defs>
</svg>
